    <svg width="65" height="99" viewBox="0 0 65 99" fill="none" xmlns="http://www.w3.org/2000/svg">
                        <path d="M42 58L36 52L42 58ZM38 47C38 47.9193 37.8189 48.8295 37.4672 49.6788C37.1154 50.5281 36.5998 51.2997 35.9497 51.9497C35.2997 52.5998 34.5281 53.1154 33.6788 53.4672C32.8295 53.8189 31.9193 54 31 54C30.0807 54 29.1705 53.8189 28.3212 53.4672C27.4719 53.1154 26.7003 52.5998 26.0503 51.9497C25.4002 51.2997 24.8846 50.5281 24.5328 49.6788C24.1811 48.8295 24 47.9193 24 47C24 45.1435 24.7375 43.363 26.0503 42.0503C27.363 40.7375 29.1435 40 31 40C32.8565 40 34.637 40.7375 35.9497 42.0503C37.2625 43.363 38 45.1435 38 47Z" stroke="#2D2F30" stroke-width="2" stroke-linecap="round" stroke-linejoin="round"/>
                        </svg>
                        